<svg xmlns="http://www.w3.org/2000/svg" width="102.916" height="69.333" viewBox="0 0 102.916 69.333"><g stroke="#000" stroke-width="1.5" stroke-miterlimit="10"><path fill="#70C3F2" d="M4.582 58.62S2.275 39.54 13.86 24.384c4.666-6.106 11.514-10.796 18.91-12.75 11.666-3.08 23.576-1.91 32.84 6.27 2.502 2.208 5.065 4.72 7.088 7.38.91 1.2 1.787 2.433 2.605 3.697.343.53 2.148 4.347 2.613 4.373l14.728.826s3.38 5.337 4.087 25.13l-17.603 4.543-19.94-1.384s-47.486 2.283-54.605-3.85z"/><path fill="none" d="M28.735 12.993c2.382.697 5.398 4.11 6.98 4.403 0 0 16.144-1.44 23.734-.947 0 0 1.714-.557 2.35-1.363M14.963 22.936s6.57 2.295 8.867 3.482c0 0 8.396-.536 17.37 1.233 0 0 1.874-.154 3.856 0 1.982.156 12.787.5 17.355 0 0 0 6.76-1.425 8.68-4.327M35.713 17.396s-2.498 3.7-4.228 9.072M53.457 16.243s3.04 7.973 3.395 11.785"/><path fill="none" d="M41.563 27.627s-.34 9.983.694 14.093c0 0 15.706.444 18.466-.38s4.347-1.84 5.234-2.174c0 0-.157-6.857-3.093-11.516M23.83 26.418s-2.723 8-3.352 13.102M7.848 36.67s12.27 4.46 33.99 5.032"/><path fill="none" d="M4.945 46.693s3.034 1.975 6.45 2.21c0 0 5.277 1.66 14.75 1.537 0 0 2.356.178 6.703.027 4.347-.15 11.743 0 13.516-.28 0 0 1.742.792 4.24.475s10.653.404 11.807-.14c0 0 1.654-4.655-.085-9.84M12.56 38.133s-.544 7.94-1.166 10.77M27.533 40.55s.348 6.557-.568 9.55M47.056 41.902l-.143 8.478M18.142 50.18s-.525 8.023-.506 12.008M36.32 50.44l-.207 12.57M59.34 50.81s.24 8.333-.152 11.66M63.08 45.744s4.11-11.463 14.837-12.388"/><path fill="#FFD2A0" d="M85.157 62.318s-.59-19.862 1.95-21.237c2.543-1.374 4.616-.856 5.083 2.553.467 3.41.71 16.5.71 16.5"/><path fill="none" d="M92.644 34.182s-9.268.473-11.16 7.72-2.356 21.95-2.356 21.95M70.397 63.226s-2.935-25.707 9.898-29.87M67.536 38.29s4.29.036 6.13.877M62.865 48.902s5.304.775 7.612.59M76.337 35.696s8.16-.194 8.997.735M70.11 51.353l9.71.195"/><path fill="#CF9E82" d="M85.767 44.23s2.875 1.428 2.963 17.244l-3.633.387s-.264-13.86.67-17.63z"/></g></svg>